<?xml version="1.0" encoding="UTF-8"?>
<svg enable-background="new 0 0 355.7 289.8" version="1.1" viewBox="0 0 355.7 289.8" xml:space="preserve" xmlns="http://www.w3.org/2000/svg">
<title>14</title>
<path d="m146.7 42c-20.9 17.4-37.8 39.7-60 55.4-20.6 14.5-45.4 23.2-63.1 41.1-31.5 31.8-31.4 83 0.1 114.8 21.2 21.3 52.5 29.4 82.5 31s60.1-2.4 90.1-0.7c28.4 1.5 56.6 8 85 5.9s58.4-15.5 69.6-41.6c12.4-28.9-1.8-61.5-11.6-91.4-7.4-22.6-12.3-45.9-14.6-69.6-3.4-35.4-9.7-84.6-54.2-86.5-44.3-2.2-89.9 13.2-123.8 41.6z" enable-background="new    " fill="#DDF1FD"/>
<linearGradient id="i" x1="253.52" x2="173.83" y1="152.8" y2="-140.55" gradientTransform="matrix(1 0 0 -1 -25.09 277.38)" gradientUnits="userSpaceOnUse">
	<stop offset=".01"/>
	<stop stop-opacity=".69" offset=".13"/>
	<stop stop-opacity=".32" offset=".25"/>
	<stop stop-opacity="0" offset="1"/>
</linearGradient>
<path d="m266 238.8c1.8 0.9 2.1 3.6 1.1 5.4s-3 2.8-4.8 3.7c-4.4 2-9 3.6-13.8 4.6-2.1 0.5-5 1.7-4.5 3.8 0.4 1.7 2.6 2.1 4.4 2.1 26 0.4 51.7-6.6 77.7-6 1.7 0 3.6 0.2 4.8 1.5 1.5 1.6 1.1 4.1 0.3 6.2-4.6 11.2-18 15.5-29.9 17.4-27.2 4.4-54.9 3.1-82.5 2.8-54.9-0.6-109.9 2.6-164.5-2.1-1.2 0-2.3-0.3-3.3-0.9-1-0.9-1.6-2.1-1.7-3.4-0.9-6.6 4.4-12.9 10.7-15.3s13.2-2 19.9-1.5c28.4 2 56.9 3.7 85.3 1.6 18.6-1.2 37-4.6 54.8-10 8.2-2.5 16.5-7.6 24.9-9.1 2.6-0.5 5.2-0.1 7.8-0.3 3.6-0.3 9.8-2.3 13.3-0.5z" fill="url(#i)"/>
<path d="m0 191c0.1 3.4 1.8 6.4 3.4 9.4 7.5 13.2 15.9 26.3 27.5 36.1 17.1 14.4 39.5 20.6 61.1 26.5-1.9-0.9-4.3-10.9-5.1-13.1-1.7-4.3-3.2-8.6-4.8-12.9-2.5-6.8-7.9-12.3-13-17.3-11.8-11.3-26-19.7-41.6-24.4-9-2.8-18.2-4.2-27.5-4.3z" fill="#00B1EB"/>
<linearGradient id="h" x1="117" x2="-17.042" y1="89.532" y2="-24.658" gradientTransform="matrix(1 0 0 -1 -25.09 277.38)" gradientUnits="userSpaceOnUse">
	<stop offset=".01"/>
	<stop stop-opacity=".69" offset=".13"/>
	<stop stop-opacity=".32" offset=".25"/>
	<stop stop-opacity="0" offset="1"/>
</linearGradient>
<path d="m0 191c0.1 3.4 1.8 6.4 3.4 9.4 7.5 13.2 15.9 26.3 27.5 36.1 17.1 14.4 39.5 20.6 61.1 26.5-1.9-0.9-4.3-10.9-5.1-13.1-1.7-4.3-3.2-8.6-4.8-12.9-2.5-6.8-7.9-12.3-13-17.3-11.8-11.3-26-19.7-41.6-24.4-9-2.8-18.2-4.2-27.5-4.3z" fill="url(#h)"/>
<path d="m84.5 198.4c-1.8-12.3-3.6-24.8-8.5-36.2-5-11.4-13.5-21.8-25.2-26.2l-1 52.9c-0.2 10.2-0.4 20.6 2.6 30.4 5.1 17.1 22.9 37.2 40.1 42.9 2.5-8.2-1.7-20.7-3-29.2l-5-34.6z" fill="#00B1EB"/>
<path d="m297.3 182.5c-0.1 3.3-1.8 6.4-3.4 9.3-7.5 13.3-15.9 26.3-27.5 36.1-17.1 14.4-39.4 20.7-61 26.5 1.9-0.9 4.3-10.9 5.1-13.1 1.7-4.3 3.2-8.6 4.8-12.9 2.5-6.8 7.9-12.3 13.1-17.3 11.7-11.3 26-19.7 41.6-24.4 8.8-2.7 18-4.1 27.3-4.2z" fill="#00B1EB"/>
<linearGradient id="g" x1="1344.5" x2="1210.4" y1="98.052" y2="-16.128" gradientTransform="matrix(-1 0 0 -1 1549.8 277.38)" gradientUnits="userSpaceOnUse">
	<stop offset=".01"/>
	<stop stop-opacity=".69" offset=".13"/>
	<stop stop-opacity=".32" offset=".25"/>
	<stop stop-opacity="0" offset="1"/>
</linearGradient>
<path d="m297.3 182.5c-0.1 3.3-1.8 6.4-3.4 9.3-7.5 13.3-15.9 26.3-27.5 36.1-17.1 14.4-39.4 20.7-61 26.5 1.9-0.9 4.3-10.9 5.1-13.1 1.7-4.3 3.2-8.6 4.8-12.9 2.5-6.8 7.9-12.3 13.1-17.3 11.7-11.3 26-19.7 41.6-24.4 8.8-2.7 18-4.1 27.3-4.2z" fill="url(#g)"/>
<path d="m212.8 189.9c1.8-12.3 3.6-24.8 8.5-36.2s13.5-21.8 25.2-26.2c0.3 17.7 0.7 35.3 1 52.9 0.2 10.2 0.4 20.6-2.6 30.4-5.1 17.1-22.9 37.2-40.1 42.9-2.6-8.2 1.7-20.7 2.9-29.2l5.1-34.6z" fill="#00B1EB"/>
<path d="m90 139.9c-0.3 0.2-0.5 0.5-0.7 0.8-0.9 1.1-1.4 2.6-1.3 4 0 0.1 0 0.2 0.1 0.2s0.1 0.1 0.2 0.1c0.6 0.1 1.3 0.2 1.9 0.2-0.5 1.7-0.6 3.4-0.3 5.1 0 0.4 0.1 0.7 0.3 1.1 0.4 0.4 1 0.6 1.6 0.5h3.7c0.7 0 1.3 0 2-0.1 0.1 0 0.2-0.1 0.3-0.1 0.1-0.1 0.1-0.2 0.1-0.4 0.2-1.6-0.2-3.2-0.3-4.9v-0.3c0.1-0.1 0.2-0.2 0.3-0.2l1.1-0.6c0.1 0 0.2-0.1 0.3-0.2s0.1-0.3 0.1-0.4c0.2-1.5-0.3-2.9-1.3-4-0.8-0.6-1.8-0.9-2.8-0.9-0.9-0.1-1.9-0.1-2.8-0.2-0.9-0.2-1.8 0-2.5 0.3z" fill="none"/>
<path d="m92.6 140.3c0.1 0.2 0.2 0.4 0.4 0.5s0.4 0.2 0.6 0.2 0.4 0 0.6-0.1 0.3-0.3 0.4-0.4c0.1-0.2 0.1-0.4 0.2-0.6 0.1-0.5 0-1-0.1-1.5 0-0.1-0.1-0.3-0.2-0.4-0.2-0.2-0.4-0.3-0.6-0.3-0.3-0.1-1.1-0.1-1.2 0.3-0.2 0.4-0.2 0.9-0.2 1.4-0.1 0.3 0 0.6 0.1 0.9z" fill="none"/>
<path d="m95.9 135.8c0 0.7-0.2 1.4-0.7 2s-1.3 0.8-2 0.4c-0.2-0.1-0.4-0.3-0.6-0.5-0.3-0.3-0.6-0.6-0.8-1s-0.3-0.7-0.3-1.1c-0.1-0.5 0-0.9 0.1-1.4s0.5-0.8 0.9-1.1c0.3-0.1 0.7-0.2 1.1-0.2s0.8 0 1.3 0.1 0.9 0.3 0.9 0.8 0.1 1.4 0.1 2z" fill="none"/>
<path d="m195 17.4-92.6 9.1c-9.6 0.9-17.3 9-17.3 18v207.6c0 9 7.8 15.5 17.3 14.5l92.6-9.1c9.6-0.9 17.3-9 17.3-17.9v-207.6c0-9-7.7-15.5-17.3-14.6zm8.5 222.6c0 5.5-4.8 10.5-10.7 11.1l-89.9 8.9c-5.9 0.6-10.7-3.4-10.7-9v-207c0-5.5 4.8-10.5 10.7-11.1l13.5-1.3v1.2c0 3.5 3.1 6.1 6.8 5.7l49.7-4.8c3.7-0.3 6.7-3.3 6.8-7.1v-1.2l13-1.3c5.9-0.6 10.7 3.4 10.7 9l0.1 206.9z" fill="#00B1EB"/>
<path d="m199.3 21.3-92.6 9.1c-9.6 0.9-17.3 9-17.3 18v207.5c0 9 7.8 15.5 17.3 14.5l92.6-9.1c9.6-0.9 17.3-9 17.3-17.9v-207.6c0.1-8.9-7.7-15.4-17.3-14.5zm8.5 222.5c0 5.5-4.8 10.5-10.7 11.1l-90 8.9c-5.9 0.6-10.7-3.4-10.7-9v-207c0-5.5 4.8-10.5 10.7-11.1l13.5-1.3v1.2c0 3.5 3.1 6.1 6.8 5.7l49.8-4.9c3.7-0.3 6.6-3.3 6.8-7.1v-1.2l13.1-1.3c5.9-0.6 10.7 3.4 10.7 9v207z" fill="#fff"/>
<linearGradient id="f" x1="-22.562" x2="146.01" y1="5.5646" y2="-129.06" gradientTransform="matrix(1.07 -.1 0 -1 86.31 90.38)" gradientUnits="userSpaceOnUse">
	<stop stop-color="#fff" offset="0"/>
	<stop stop-color="#CBCBCB" offset="1"/>
</linearGradient>
<path d="m207.8 36.9v207c0 5.5-4.8 10.5-10.7 11.1l-90 8.9c-5.9 0.6-10.7-3.4-10.7-9v-207c0-5.5 4.8-10.5 10.7-11.1l13.5-1.3v1.2c0 3.5 3.1 6.1 6.8 5.7l49.8-4.9c3.7-0.3 6.6-3.3 6.8-7.1v-1.2l13.1-1.3c5.9-0.6 10.7 3.4 10.7 9z" fill="none" stroke="url(#f)" stroke-miterlimit="10" stroke-width=".63"/>
<path d="m207.8 36.9v207c0 5.5-4.8 10.5-10.7 11.1l-90 8.9c-5.9 0.6-10.7-3.4-10.7-9v-207c0-5.5 4.8-10.5 10.7-11.1l13.5-1.3v1.2c0 3.5 3.1 6.1 6.8 5.7l49.8-4.9c3.7-0.3 6.6-3.3 6.8-7.1v-1.2l13.1-1.3c5.9-0.6 10.7 3.4 10.7 9z" fill="#00B1EB"/>
<linearGradient id="e" x1="186.07" x2="161.28" y1="75.118" y2="-7.8121" gradientTransform="matrix(1 0 0 -1 -25.09 277.38)" gradientUnits="userSpaceOnUse">
	<stop offset=".01"/>
	<stop stop-opacity=".69" offset=".13"/>
	<stop stop-opacity=".32" offset=".25"/>
	<stop stop-opacity="0" offset="1"/>
</linearGradient>
<path d="m177.1 233.3-45.2 4.3c-2.5 0.2-4.8-1.7-5-4.2v-0.4-11.3c0-2.4 1.8-4.4 4.2-4.7l45.2-4.3c2.5-0.2 4.8 1.6 5 4.2v0.5 11.3c0.1 2.3-1.8 4.3-4.2 4.6z" fill="url(#e)"/>
<linearGradient id="d" x1="60.189" x2="60.099" y1="59.068" y2="47.798" gradientTransform="matrix(1.07 -.1 0 -1 86.3 90.38)" gradientUnits="userSpaceOnUse">
	<stop stop-color="#fff" offset="0"/>
	<stop stop-color="#CBCBCB" offset="1"/>
</linearGradient>
<polygon points="159.2 34.8 142.1 36.4 142.1 35 159.2 33.3" fill="url(#d)"/>
<linearGradient id="c" x1="71.162" x2="71.782" y1="58.414" y2="50.164" gradientTransform="matrix(1.0645 -.101 -.0023696 -.9948 87.298 89.522)" gradientUnits="userSpaceOnUse">
	<stop stop-color="#fff" offset="0"/>
	<stop stop-color="#CBCBCB" offset="1"/>
</linearGradient>
<path d="m162.8 31.9c0.9-0.5 2-0.3 2.5 0.5s0.1 1.9-0.8 2.4-2 0.3-2.5-0.5c-0.4-0.8-0.1-1.9 0.8-2.4z" fill="url(#c)"/>
<path d="m118.9 193.5 65.2-6.3c4.6-0.4 8-4.3 8-8.8v-73.6c0-5.4-4.4-9.7-9.8-9.6h-0.7l-65.2 6.3c-4.6 0.4-8 4.2-8 8.8v73.6c0 5.4 4.4 9.7 9.8 9.6h0.7z" fill="#C9D9DF"/>
<linearGradient id="b" x1="178.58" x2="267.4" y1="164.22" y2="133.39" gradientTransform="matrix(1 .02 0 -1 -21.29 307.22)" gradientUnits="userSpaceOnUse">
	<stop stop-color="#fff" offset="0"/>
	<stop stop-color="#CBCBCB" offset="1"/>
</linearGradient>
<path d="m122.8 194.5 65.2-6.3c4.6-0.4 8-4.2 8-8.8v-73.6c0-5.4-4.4-9.7-9.8-9.6h-0.7l-65.2 6.3c-4.6 0.4-8 4.3-8 8.8v73.6c0 5.4 4.4 9.7 9.8 9.6 0.2 0.1 0.4 0 0.7 0z" fill="url(#b)"/>
<g fill="#473F47">
	<path d="m125.3 116 23.4-1.9v23.5l-23.4 1.9v-23.5zm19.5 18v-15.6l-15.6 1.3v15.7l15.6-1.4z"/>
	<path d="m164.4 112.8 23.4-1.9v23.5l-23.4 1.9v-23.5zm19.6 18.1v-15.7l-15.6 1.3v15.7l15.6-1.3z"/>
	<path d="m148.7 176.9-23.4 1.9v-23.4l23.4-1.9v23.4zm-19.6-2.3 15.7-1.2v-15.7l-15.7 1.3v15.6z"/>
	<path d="m156.5 117.4 3.9-0.3v7.8l-3.9 0.3v3.9l-3.9 0.3v-15.6l3.8-0.3v3.9z"/>
	<path d="m187.8 146.3-7.7 0.6v-3.9l-7.8 0.6v-3.9l15.6-1.3-0.1 7.9z"/>
	<path d="m184 162.4v3.9l3.9-0.3v7.8l-7.7 0.6v-11.6l3.8-0.4z"/>
	<path d="m133 142.9v3.9l3.9-0.3v3.9l-11.6 0.9v-7.8l7.7-0.6z"/>
	<path d="m156.6 141 11.7-0.9v7.8l-7.8 0.6v-4l-3.9 0.3v-3.8z"/>
	<path d="m164.4 152.1 3.9-0.3v-3.9l7.8-0.6v7.8l-11.6 0.9-0.1-3.9z"/>
	<path d="m160.4 148.5v7.8l-7.8 0.6v-7.8l7.8-0.6z"/>
	<path d="m160.4 168.2 2.1-0.2 5.1-0.4h0.6v7.8l-7.8 0.6v-7.2-0.6z"/>
	<path d="m152.7 149.1-7.8 0.6v-3.9l3.9-0.3v-3.9l3.9-0.3v7.8z"/>
	<path d="m187.8 158-3.8 0.3v-3.9l-3.9 0.3v-3.9l7.7-0.6v7.8z"/>
	<path d="m156.6 168.5v-4l-3.9 0.3v-3.8l7.7-0.6v7.9c-0.6 0-1.2 0-1.8 0.1s-1.3 0-2 0.1z"/>
	<path d="m156.6 137.1v-7.9l3.8-0.3v7.8l-3.8 0.4z"/>
	<path d="m156.6 168.5v7.7l-3.9 0.3v-7.8l3.9-0.2z"/>
	<path d="m144.8 142v3.8l-7.7 0.6v-3.8l7.7-0.6z"/>
	<path d="m172.3 163.2v-3.8l7.7-0.6v3.8l-7.7 0.6z"/>
	<path d="m172.3 175v-7.7l3.8-0.3v7.7l-3.8 0.3z"/>
	<path d="m152.7 141.3v-3.9l3.9-0.3v3.9l-3.9 0.3z"/>
	<path d="m164.4 163.9v-3.9l3.8-0.3v3.8l-3.8 0.4z"/>
	<path d="m160.5 160.2v-3.9l3.8-0.3v3.8l-3.8 0.4z"/>
	<path d="m172.2 167.2-3.8 0.3v-3.8l3.8-0.3v3.8z"/>
	<path d="m140.8 122.6-7.7 0.6v7.7l7.7-0.6v-7.7z"/>
	<path d="m180 127.2v-7.8l-7.7 0.6v7.8l7.7-0.6z"/>
	<path d="m133.1 170.3 7.7-0.6v-7.8l-7.7 0.6v7.8z"/>
	<path d="m140.8 122.6v7.8l-7.7 0.6v-7.7l7.7-0.7z"/>
	<path d="m180 127.2-7.7 0.6v-7.8l7.7-0.6v7.8z"/>
	<path d="m133.1 170.3v-7.8l7.7-0.6v7.8l-7.7 0.6z"/>
</g>
<path d="m179.4 231.8-45.2 4.3c-2.5 0.2-4.8-1.6-5-4.1v-0.5-11.3c0-2.4 1.8-4.4 4.2-4.7l45.2-4.3c2.5-0.2 4.8 1.6 5 4.2v0.5 11.3c0 2.3-1.8 4.3-4.2 4.6z" fill="#fff"/>
<path d="m142.6 226.9 1.9-0.2c0 0.2 0.1 0.4 0.3 0.5s0.4 0.2 0.7 0.1c0.2 0 0.5-0.1 0.7-0.2s0.3-0.3 0.3-0.5v-0.1l-0.2-0.2c-0.2-0.1-0.3-0.2-0.5-0.2l-0.9-0.2c-0.3-0.1-0.7-0.2-1-0.3-0.2-0.1-0.5-0.3-0.6-0.5-0.2-0.3-0.3-0.7-0.4-1.1 0-0.6 0.3-1.3 0.8-1.7 0.5-0.5 1.2-0.7 1.9-0.8s1.3 0.1 1.9 0.4c0.5 0.4 0.8 1 0.7 1.6l-1.8 0.2c0-0.4-0.3-0.6-0.8-0.6-0.2 0-0.4 0.1-0.6 0.2-0.1 0.1-0.2 0.3-0.2 0.4 0 0.3 0.2 0.4 0.7 0.5l0.9 0.2c1.4 0.3 2.1 1 2.1 2 0 0.5-0.2 1-0.4 1.3-0.3 0.4-0.6 0.6-1.1 0.8-0.4 0.2-0.9 0.3-1.3 0.3-0.7 0.1-1.4 0-2-0.4-0.8-0.3-1.2-0.9-1.1-1.5z" fill="#00B1EB"/>
<path d="m154.5 225.4 1.5 0.9c-0.4 0.6-0.8 1-1.4 1.4-0.6 0.3-1.2 0.6-1.8 0.6-1 0.1-2-0.2-2.7-0.8s-1.2-1.6-1.1-2.5c0-1 0.4-2 1.1-2.8s1.7-1.3 2.7-1.3c0.6-0.1 1.3 0 1.9 0.3 0.6 0.2 1 0.6 1.4 1.1l-1.5 1.2c-0.2-0.3-0.4-0.5-0.7-0.6s-0.7-0.2-1-0.2c-0.5 0-1.1 0.3-1.4 0.7-0.4 0.4-0.6 0.9-0.6 1.4s0.2 1 0.6 1.3 0.9 0.5 1.4 0.4c0.4 0 0.7-0.1 1-0.3 0.2-0.3 0.5-0.5 0.6-0.8z" fill="#00B1EB"/>
<path d="m161.8 227.3-0.6-1.6-2.4 0.2-0.6 1.7-2 0.2 2.8-7.5 2-0.2 2.8 7-2 0.2zm-1.8-5.5-0.7 2.5 1.4-0.1-0.7-2.4z" fill="#00B1EB"/>
<path d="m168.4 219.4 1.8-0.2v7.3l-1.6 0.1-2.3-3.8v4l-1.8 0.2v-7.3l1.7-0.1 2.3 3.7v-3.9z" fill="#00B1EB"/>
<linearGradient id="a" x1="261.9" x2="151.72" y1="165.49" y2="143.85" gradientTransform="matrix(1 0 0 -1 0 290)" gradientUnits="userSpaceOnUse">
	<stop stop-color="#fff" offset=".01"/>
	<stop stop-color="#fff" stop-opacity="0" offset="1"/>
</linearGradient>
<polygon points="239.5 117.9 190.5 95.2 110.2 104.9 112.2 190.6 118.9 193.5 192.1 187.6 196 179.5 238.8 121.3" fill="url(#a)"/>
<path d="m237.6 123.1v-7.1c0-0.5 0.3-0.9 0.7-1.2l4-2.2c0.4-0.2 2.1 0.7 2.1 1.2l-1.1 12.3-2.8 2.2-2.8-1.7-0.1-3.5z" fill="#fff"/>
<linearGradient id="l" x1="93.243" x2="99.733" y1="10.094" y2="3.2337" gradientTransform="matrix(1.07 -.1 0 -1 86.31 90.38)" gradientUnits="userSpaceOnUse">
	<stop stop-color="#fff" offset="0"/>
	<stop stop-color="#CBCBCB" offset="1"/>
</linearGradient>
<path d="m237.6 123.1v-7.1c0-0.5 0.3-0.9 0.7-1.2l4-2.2c0.4-0.2 2.1 0.7 2.1 1.2l-1.1 12.3-2.8 2.2-2.8-1.7-0.1-3.5z" fill="url(#l)"/>
<path d="m238.8 124v-7.2c0-0.5 0.3-0.9 0.7-1.2l4-2.2c0.3-0.2 0.7-0.1 0.9 0.2 0.1 0.1 0.1 0.2 0.1 0.3v13l-2.8 2.2-2.8-1.6-0.1-3.5z" fill="#fff"/>
<path d="m239.5 123.7v-5.8l4.5-2.9v9.7l-1 3.3-2.1 0.7s-1.1-0.5-1.1-0.6" fill="#00B1EB"/>
<path d="m303.1 176.9-0.6 0.8 2.2-30.8 0.4-6.2 0.2-3 1.1 2.4c2.1 4.5 6.5 13.8 7.8 16.4 1.4 3-8.5 16.9-11.1 20.4z" fill="#fff"/>
<path d="m303.1 176.9c-0.2-0.6-0.3-1.2-0.3-1.9 0.3-1.4 0.9-2.7 1.8-3.8 2.4-3.5 5.4-7.2 6.7-11.3 1.8-5.4-4.1-8.7-6.7-13-0.7-1-1-2.2-1.1-3.4s0.5-2.3 1.6-2.8c0.4-0.3 0.9-0.5 1.3-0.6 2.1 4.5 6.5 13.8 7.8 16.4 1.4 3-8.5 16.9-11.1 20.4z" enable-background="new    " fill="#020202" opacity=".1"/>
<path d="m288.5 261.6c-1 0.4-1.7 1.2-2.2 2.1-0.1 0.2-0.1 0.4-0.1 0.7 0.1 0.3 0.4 0.6 0.8 0.7 2.5 1 5.4 0.8 8 0.3 2.6-0.6 5.3-1 8-1.2 0.5 0.1 0.9-0.1 1.3-0.4 0.2-0.3 0.2-0.5 0.2-0.9 0.1-2.4-0.3-4.7-1.2-6.9 0.1 0.1-7.1 0.4-7.8 0.9-1.1 0.8-2.1 1.8-3.3 2.5s-2.4 1.4-3.7 2.2z" fill="#282328"/>
<path d="m298.1 210.1c0 9.2 0.7 18.4 2.2 27.5 0.2 1.6 0.5 3.1 0.8 4.7 2.4 11.6 2.5 14.5 2.5 14.5h-9.5s-7-32.9-9.6-40.3c-2-5.7-3.5-11.5-4.6-17.4-0.4-2.8-0.1-5.7 1-8.3 0.4-1 0.9-2 1.5-2.9 1.3-1.4 2.9-2.5 4.7-3.2 3.8-1.7 8-2.7 12.2-2.7 0.5 0 1 0.1 1.4 0.3 0.3 0.2 0.5 0.5 0.6 0.8 1.2 2.5 1 5.4 0.6 8.2-0.2 1.5-0.5 3-1 4.5-0.6 1.5-1.4 2.8-2 4.4-0.4 1.5-0.7 3-0.8 4.5 0.1 1.8 0 3.6 0 5.4z" fill="#282328"/>
<path d="m274.3 202.8c0.2 1.2 0.3 2.4 0.2 3.6 0 2.2 0 4.3 0.2 6.5 0.5 10.3 2.1 20.6 2.1 30.9 0 8.8-0.3 18-0.3 18s7.7 2.4 9.4 0.6l3-42.5c0.5-3.2 1.1-6.5 1.4-9.7 0.2-2.8 0.3-5.2 1.3-7.9 1.2-3 2.9-5.8 3.8-8.9 0.6-2 0.8-4.1 0.8-6.2 0-0.6-0.1-1.3-0.5-1.8-0.3-0.4-0.8-0.6-1.3-0.8-5.3-2.4-10.8-4.8-16.6-4.7-0.5 0-0.9 0.1-1.4 0.3-0.4 0.3-0.7 0.8-0.8 1.3-2.1 5.6-2.8 11.7-1.9 17.7 0.2 1.3 0.4 2.4 0.6 3.6z" fill="#473F47"/>
<path d="m245.6 130.4c-0.2-1.4-0.2-2.8-0.3-4.1 0-0.5-0.2-1.1-0.4-1.5-0.3-0.5-0.9-0.7-1.4-0.5-0.6 0.3-0.6 1.2-0.6 1.9s-0.2 1.6-0.8 1.7c-0.3 0-0.5 0-0.7-0.1-0.7-0.4-1.2-1-1.3-1.8-0.1-0.4 0-0.9-0.1-1.4-0.3-1.3-1.9-1.1-2.7-0.4-0.5 0.4-0.8 1-1.1 1.6-0.6 1-1 2-1.2 3.2-0.8 4.5 4.6 5.5 6.9 8.4 0.3 0.4 0.7 0.9 1.1 1.2 0.8 0.7 1.9 0.9 2.9 0.5s1.7-1.2 1.9-2.3c0.3-1.7-1-3.2-1.5-4.8-0.4-0.6-0.5-1.1-0.7-1.6z" fill="#FFBBAB"/>
<path d="m284.8 118.7c0.1 0.1 0.2 0.3 0.2 0.4 0.1 0.3 0.1 0.6 0 0.9-0.4 1.8-0.7 3.6-0.8 5.5-0.1 0.5 0 1 0.3 1.5 0.4 0.4 1 0.7 1.6 0.7 0.9 0.1 1.8 0.2 2.6 0.2 0.4 0 0.8 0 1 0.3 0.1 0.1 0.1 0.3 0.1 0.4 0 0.7-0.1 1.4-0.4 2-0.2 0.3-0.3 0.6-0.3 1 0.1 0.6 1 0.6 1.5 0.6 1.8 0.1 3.6 0.1 5.5 0 0.3 0 0.6-0.1 0.9-0.2 0.5-0.3 0.6-0.9 0.7-1.5 0.6-2.6 2.6-4.5 3.6-6.9 1.1-2.6 1.1-5.5 0.1-8.1-0.5-1.2-1.2-2.4-2.1-3.3-0.8-0.9-2.4-1.1-3.5-1.3-2-0.4-4.2-0.5-6 0.5-2 1.2-2.9 3.7-4.9 4.8-0.4 0.2-0.8 0.4-0.9 0.8s0.1 0.8 0.4 1.1c0.1 0.2 0.2 0.4 0.4 0.6z" fill="#FFBBAB"/>
<path d="m290.3 110.7c0 0.3 0.1 0.6 0.3 0.9 0.6 1.3 1.5 1 2.6 1.2 1.4 0.3 2.3 1.8 2.6 3.1 0.2 1.6 0.2 3.1-0.1 4.7 0.6-0.5 1.5-0.6 2.2-0.1s1 1.3 0.9 2.1c-0.2 0.8-0.8 1.5-1.6 1.7-0.4 0.1-0.9 0.1-1.1 0.4-0.1 0.2-0.2 0.5-0.2 0.8 0 1.7 0.1 3.6 1.1 4.9 1.5-0.1 2.6-1.4 3.8-2.4 1.6-1.4 3.4-2.6 4.9-4.1 1.6-1.4 2.6-3.4 2.8-5.6 0-3.4-3-6.1-4.1-9.4-0.2-0.7-0.5-1.4-0.8-2.1-1.2-1.9-3.7-2.4-5.5-1.2-0.1 0.1-0.2 0.1-0.3 0.2-1.6-1.1-3.8-1.1-5.4 0-1.5 1.1-2.3 3-2.1 4.9z" fill="#FC682D"/>
<path d="m305 148.6c-0.4 3.2-0.5 6.5-0.4 9.7s0.2 6.3 0.4 9.5c-0.6 2.7-1.3 5.5-2 8.2-0.5 2.2-1.2 4.3-2.2 6.4-0.5 1-1.2 1.8-2 2.6-0.8 0.7-1.7 1.3-2.7 1.7-2.3 0.9-4.8 1.2-7.2 1-1.7-0.1-3.4-0.3-5.1-0.8-2.1-0.5-4.1-1.6-5.8-3-0.8-0.8-1.6-1.6-2.2-2.6-1.5-2.4-2.4-5-2.6-7.8-0.5-4.5 0.1-9.1 1.7-13.4 0.1-0.3 0.2-0.5 0.3-0.7 0.7-1.8 1.4-3.5 2.1-5.3v-0.1c0.1-0.3 0.2-0.5 0.3-0.8l0.1-0.1-0.4 0.2-0.4 0.1c-0.1 0.1-0.3 0.1-0.4 0.1-0.3 0.1-0.6 0.2-0.9 0.3l-1 0.3c-0.6 0.1-1.1 0.2-1.7 0.3l-0.8 0.1c-7.3 0.6-15.2-2.3-21.3-5.6-2-1-3.8-2.3-5.4-3.9-0.3-0.3-0.6-0.7-0.9-1.1-0.7-1-1.3-2-1.6-3.2-0.2-0.7-0.2-1.5 0-2.2v-0.1c0.2-0.5 0.5-0.9 0.9-1.3 0.9-1 1.9-2 2.9-2.9l0.3-0.3c0.3-0.2 0.6-0.4 1-0.5 0.7-0.2 1.4 0 2 0.4 0.5 0.4 1 0.8 1.4 1.2 5.6 5.4 13.2 8.1 20.9 7.6 2.1-0.1 4.2-0.6 6.1-1.5 1.7-0.9 3.2-2 4.6-3.3 1.3-1 2.5-2.1 3.6-3.3 0.3-0.3 0.6-0.6 0.9-1s0.4-0.5 0.6-0.8l0.3-0.3c0.2-0.3 0.5-0.6 0.9-0.9 0.5-0.2 1.1-0.3 1.6-0.3 2.2-0.1 4.5-0.5 6.7-0.4h0.2c0.2 0 0.4 0 0.6 0.1 0.7 0.1 1.4 0.4 2 0.9 0.7 0.7 1.3 1.4 1.9 2.2 1.3 1.5 2.4 3.2 3.1 5 1 3 0.1 6.4-0.4 9.6z" fill="#fff"/>
<path d="m307.5 148.3c0 3.5-0.3 6.9-0.8 10.4-0.5 3.1-1 6.1-1.7 9.2-0.1-3.2-0.3-6.3-0.4-9.5s0-6.5 0.4-9.7c0.5-3.3 1.5-6.6 0.5-9.7-0.7-1.8-1.7-3.5-3.1-5-0.6-0.8-1.2-1.5-1.9-2.2 2 1.5 3.6 4.3 4.9 6 2.2 2.9 2.1 7 2.1 10.5z" fill="#fff"/>
<path d="m307.5 148.3c0 3.5-0.3 6.9-0.8 10.4-0.5 3.1-1 6.1-1.7 9.2-0.1-3.2-0.3-6.3-0.4-9.5s0-6.5 0.4-9.7c0.5-3.3 1.5-6.6 0.5-9.7-0.7-1.8-1.7-3.5-3.1-5-0.6-0.8-1.2-1.5-1.9-2.2 2 1.5 3.6 4.3 4.9 6 2.2 2.9 2.1 7 2.1 10.5z" enable-background="new    " fill="#020202" opacity=".1"/>
<path d="m305 148.6c-0.4 3.2-0.5 6.5-0.4 9.7s0.2 6.3 0.4 9.5c-0.6 2.7-1.3 5.5-2 8.2-0.5 2.2-1.2 4.3-2.2 6.4-0.5 1-1.2 1.8-2 2.6-0.8 0.7-1.7 1.3-2.7 1.7-2.3 0.9-4.8 1.2-7.2 1-1.7-0.1-3.4-0.3-5.1-0.8-2.1-0.5-4.1-1.6-5.8-3-0.8-0.8-1.6-1.6-2.2-2.6-1.5-2.4-2.4-5-2.6-7.8-0.5-4.5 0.1-9.1 1.7-13.4 0.1-0.3 0.2-0.5 0.3-0.7 0.8-1.7 1.5-3.5 2.1-5.3v-0.1c0.1-0.3 0.1-0.6 0.2-0.9-0.1 0-0.2 0.1-0.2 0.1l-0.4 0.1c-0.1 0.1-0.3 0.1-0.4 0.1-0.3 0.1-0.6 0.2-0.9 0.3l-1 0.3c-0.6 0.1-1.1 0.2-1.7 0.3l-0.8 0.1c-7.4 0.8-14.9-2.1-21.3-5.6-2-1-3.8-2.3-5.4-3.9-0.3-0.3-0.6-0.7-0.9-1.1-0.7-1-1.3-2-1.6-3.2-0.2-0.7-0.2-1.5 0-2.2v-0.1c0.2-0.5 0.5-0.9 0.9-1.3 0.9-1 1.9-2 2.9-2.9l0.3-0.3c0.3-0.2 0.6-0.4 1-0.5 0.7-0.2 1.4 0 2 0.4 0.5 0.4 1 0.8 1.4 1.2 5.6 5.4 13.2 8.1 20.9 7.6 2.1-0.1 4.2-0.6 6.1-1.5 1.7-0.9 3.2-2 4.6-3.3 1.3-1 2.5-2.1 3.6-3.3 0.3-0.3 0.6-0.6 0.9-1s0.4-0.5 0.6-0.8l0.3-0.3c0.2-0.3 0.5-0.6 0.9-0.9 0.5-0.2 1.1-0.3 1.6-0.3 2.2-0.1 4.5-0.5 6.7-0.4h0.2c0.2 0 0.4 0 0.6 0.1 0.7 0.2 1.4 0.5 2 0.9 0.7 0.7 1.3 1.4 1.9 2.2 1.3 1.5 2.4 3.2 3.1 5 1 3.1 0.1 6.5-0.4 9.7z" enable-background="new    " fill="#020202" opacity=".1"/>
<path d="m270.8 267.1c-1 0.4-1.7 1.2-2.2 2.1-0.1 0.2-0.1 0.4-0.1 0.7 0.1 0.3 0.4 0.6 0.8 0.7 2.5 1 5.4 0.8 8 0.3 2.6-0.6 5.3-1 8.1-1.2 0.5 0.1 0.9-0.1 1.3-0.4 0.2-0.3 0.2-0.5 0.2-0.9 0.1-2.4-0.3-4.7-1.2-6.9 0.1 0.1-7.1 0.4-7.7 0.9-1.1 0.8-2.1 1.8-3.3 2.5s-2.6 1.5-3.9 2.2z" fill="#282328"/>
<path d="m258.8 145.7c-4.8-1.7-9.7-3.4-13.5-6.8-0.4-0.3-0.7-0.8-0.9-1.3 0.1-0.7 0.4-1.3 1-1.6 0.7-0.7 1.5-1.3 2.3-1.8 0.9-0.5 1.9-0.6 2.8-0.3 0.6 0.3 1.2 0.8 1.7 1.3 3.5 3.2 7.8 5.3 12.5 6.1 4.5 1 9.5 1.1 13.9-0.7 2.5-1 8-7.6 10.5-6.7s1.4 5.9 0.2 7.4c-2.6 3.3-9.1 4.8-13 5.6-5.9 1.2-11.9 0.8-17.5-1.2z" fill="#fff"/>
<path d="m296.9 134.9c1.1-0.5 1.9-1.5 2.3-2.7-1.3-0.3-2.7-0.3-4-0.2l-3.8 0.2-2.5 0.1c-1.6 0.1-1.6 0.8-1 1.9 0.3 0.5 1 0.9 1.3 1.5s0.4 1.1 0.7 1.6c1 1.2 1.3 0.5 2.6-0.3s2.9-1.3 4.4-2.1z" fill="#fff"/>
<polygon points="234.8 42.9 279.8 38.2 247.6 50.7" fill="#00B1EB"/>
<polygon points="279.8 38.2 253 64.1 247.6 50.7" fill="#00B1EB"/>
<linearGradient id="k" x1="252.32" x2="289.51" y1="254.12" y2="213.79" gradientTransform="matrix(1 0 0 -1 0 290)" gradientUnits="userSpaceOnUse">
	<stop offset=".01"/>
	<stop stop-opacity=".69" offset=".13"/>
	<stop stop-opacity=".32" offset=".25"/>
	<stop stop-opacity="0" offset="1"/>
</linearGradient>
<polygon points="279.8 38.2 253 64.1 247.6 50.7" fill="url(#k)"/>
<polygon points="242.3 65 247.6 50.7 279.8 38.2" fill="#00B1EB"/>
<linearGradient id="j" x1="257.28" x2="257.28" y1="264.05" y2="220.77" gradientTransform="matrix(1 0 0 -1 0 290)" gradientUnits="userSpaceOnUse">
	<stop offset=".01"/>
	<stop stop-opacity=".69" offset=".13"/>
	<stop stop-opacity=".32" offset=".25"/>
	<stop stop-opacity="0" offset="1"/>
</linearGradient>
<polygon points="279.8 38.2 247.6 48 234.8 42.9 247.6 50.7" fill="url(#j)"/>
</svg>
